{"title":"Machine.Gun.Preacher.2011.LiMiTED.BRRip.XviD.Ac3.Feel-Free","uid":7074762,"size":1772935697,"categoryP":"video","categoryS":"movies","magnet":"?xt=urn:btih:cc42b3ba68d41d3b0bb2d834be38c6a7facebb4c&amp;dn=Machine.Gun.Preacher.2011.LiMiTED.BRRip.XviD.Ac3.Feel-Free&amp;tr=udp%3A%2F%2Ftracker.openbittorrent.com%3A80&amp;tr=udp%3A%2F%2Fopen.demonii.com%3A1337&amp;tr=udp%3A%2F%2Ftracker.coppersurfer.tk%3A6969&amp;tr=udp%3A%2F%2Fexodus.desync.com%3A6969","seeders":0,"leechers":1,"uploader":null,"files":10,"time":1330796915,"description":"Genre:Action | Biography | Crime\nLanguage:English\nIMDb:http://www.imdb.com/title/tt1586752/\nThanks!\nEncoder:Tony\n\nFormat : AVI\nFormat/Info : Audio Video Interleave\nFile size : 1.65 GiB\nDuration : 2h 8mn\nOverall bit rate : 1 833 Kbps\n\nVideo\nID : 0\nFormat : MPEG-4 Visual\nFormat profile : Advanced Simple@L5\nFormat settings, BVOP : 1\nFormat settings, QPel : No\nFormat settings, GMC : No warppoints\nFormat settings, Matrix : Default (H.263)\nCodec ID : XVID\nCodec ID/Hint : XviD\nDuration : 2h 8mn\nBit rate : 1 376 Kbps\nWidth : 640 pixels\nHeight : 264 pixels\nDisplay aspect ratio : 2.40:1\nFrame rate : 23.976 fps\nColor space : YUV\nChroma subsampling : 4:2:0\nBit depth : 8 bits\nScan type : Progressive\nCompression mode : Lossy\nBits/(Pixel*Frame) : 0.340\nStream size : 1.24 GiB (75%)\nWriting library : XviD 1.2.1 (UTC 2008-12-04)\n\nAudio\nID : 1\nFormat : AC-3\nFormat/Info : Audio Coding 3\nMode extension : CM (complete main)\nCodec ID : 2000\nDuration : 2h 8mn\nBit rate mode : Constant\nBit rate : 448 Kbps\nChannel(s) : 6 channels\nChannel positions : Front: L C R, Side: L R, LFE\nSampling rate : 48.0 KHz\nBit depth : 16 bits\nCompression mode : Lossy\nStream size : 413 MiB (24%)\nAlignment : Aligned on interleaves\nInterleave, duration : 42 ms (1.00 video frame)\nInterleave, preload duration : 512 ms\n\n\nPlot:\nThe story of Sam Childers, a former drug-dealing biker tough guy who found God and became a crusader for hundreds of Sudanese children who've been forced to become soldiers.\n","torrent":{"xt":"urn:btih:cc42b3ba68d41d3b0bb2d834be38c6a7facebb4c","amp;dn":"Machine.Gun.Preacher.2011.LiMiTED.BRRip.XviD.Ac3.Feel-Free","amp;tr":["udp%3A%2F%2Ftracker.openbittorrent.com%3A80","udp%3A%2F%2Fopen.demonii.com%3A1337","udp%3A%2F%2Ftracker.coppersurfer.tk%3A6969","udp%3A%2F%2Fexodus.desync.com%3A6969"],"infoHash":"cc42b3ba68d41d3b0bb2d834be38c6a7facebb4c","infoHashBuffer":{"type":"Buffer","data":[204,66,179,186,104,212,29,59,11,178,216,52,190,56,198,167,250,206,187,76]},"announce":[],"urlList":[]}}